HIERARCHY
ROOT Hips
{
	OFFSET	0.00	0.00	0.00
	CHANNELS 6 Xposition Yposition Zposition Zrotation Xrotation Yrotation
	JOINT LeftUpLeg
	{
		OFFSET	 0.126116	-0.014019	-0.065224
		CHANNELS 3 Zrotation Xrotation Yrotation
		JOINT LeftLeg
		{
			OFFSET	 0.000000	 0.000000	 0.569914
			CHANNELS 3 Zrotation Xrotation Yrotation
			JOINT LeftFoot
			{
				OFFSET	 0.000000	 0.000000	 0.544423
				CHANNELS 3 Zrotation Xrotation Yrotation
				JOINT LeftToeBase
				{
					OFFSET	 0.000000	 0.000000	 0.207117
					CHANNELS 3 Zrotation Xrotation Yrotation
					End Site
					{
						OFFSET	 0.000000	 0.000000	 0.207117
					}
				}
			}
		}
	}
	JOINT RightUpLeg
	{
		OFFSET	-0.124023	-0.008373	-0.065224
		CHANNELS 3 Zrotation Xrotation Yrotation
		JOINT RightLeg
		{
			OFFSET	 0.000000	 0.000000	 0.570047
			CHANNELS 3 Zrotation Xrotation Yrotation
			JOINT RightFoot
			{
				OFFSET	 0.000000	 0.000000	 0.544354
				CHANNELS 3 Zrotation Xrotation Yrotation
				JOINT RightToeBase
				{
					OFFSET	 0.000000	 0.000000	 0.207540
					CHANNELS 3 Zrotation Xrotation Yrotation
					End Site
					{
						OFFSET	 0.000000	 0.000000	 0.207540
					}
				}
			}
		}
	}
	JOINT Spine
	{
		OFFSET	 0.000184	-0.007763	 0.117403
		CHANNELS 3 Zrotation Xrotation Yrotation
		JOINT Spine1
		{
			OFFSET	 0.000000	 0.000000	 0.137269
			CHANNELS 3 Zrotation Xrotation Yrotation
			JOINT Spine2
			{
				OFFSET	 0.000000	 0.000000	 0.156879
				CHANNELS 3 Zrotation Xrotation Yrotation
				JOINT LeftShoulder
				{
					OFFSET	 0.080501	-0.002496	 0.160144
					CHANNELS 3 Zrotation Xrotation Yrotation
					JOINT LeftArm
					{
						OFFSET	 0.000000	 0.000000	 0.164363
						CHANNELS 3 Zrotation Xrotation Yrotation
						JOINT LeftForeArm
						{
							OFFSET	 0.000000	 0.000000	 0.364576
							CHANNELS 3 Zrotation Xrotation Yrotation
							JOINT LeftHand
							{
								OFFSET	 0.000000	 0.000000	 0.360812
								CHANNELS 3 Zrotation Xrotation Yrotation
								JOINT LeftHandIndex1
								{
									OFFSET	 0.000000	 0.000000	 0.086006
									CHANNELS 3 Zrotation Xrotation Yrotation
									JOINT LeftHandIndex2
									{
										OFFSET	 0.000000	 0.000000	 0.047236
										CHANNELS 3 Zrotation Xrotation Yrotation
										JOINT LeftHandIndex3
										{
											OFFSET	-0.004284	-0.000551	 0.038166
											CHANNELS 3 Zrotation Xrotation Yrotation
											End Site
											{
												OFFSET	-0.004284	-0.000551	 0.038166
											}
										}
									}
								}
							}
						}
					}
				}
				JOINT Neck
				{
					OFFSET	 0.000000	 0.000000	 0.176489
					CHANNELS 3 Zrotation Xrotation Yrotation
					JOINT Head
					{
						OFFSET	 0.000000	-0.001747	 0.077940
						CHANNELS 3 Zrotation Xrotation Yrotation
						End Site
						{
							OFFSET	 0.000000	-0.001747	 0.077940
						}
					}
				}
				JOINT RightShoulder
				{
					OFFSET	-0.080363	 0.000306	 0.159706
					CHANNELS 3 Zrotation Xrotation Yrotation
					JOINT RightArm
					{
						OFFSET	 0.000000	 0.000000	 0.164196
						CHANNELS 3 Zrotation Xrotation Yrotation
						JOINT RightForeArm
						{
							OFFSET	 0.000000	 0.000000	 0.365611
							CHANNELS 3 Zrotation Xrotation Yrotation
							JOINT RightHand
							{
								OFFSET	 0.000000	 0.000000	 0.360648
								CHANNELS 3 Zrotation Xrotation Yrotation
								JOINT RightHandIndex1
								{
									OFFSET	 0.000000	 0.000000	 0.069977
									CHANNELS 3 Zrotation Xrotation Yrotation
									JOINT RightHandIndex2
									{
										OFFSET	 0.000000	 0.000000	 0.052305
										CHANNELS 3 Zrotation Xrotation Yrotation
										JOINT RightHandIndex3
										{
											OFFSET	 0.009002	-0.000782	 0.042196
											CHANNELS 3 Zrotation Xrotation Yrotation
											End Site
											{
												OFFSET	 0.009002	-0.000782	 0.042196
											}
										}
									}
								}
							}
						}
					}
				}
			}
		}
	}
}
MOTION
Frames:    12
Frame Time: 0.03333334
 6.872660	 4.258869	-0.842012	-170.324100	-2.107966	 0.096068	 6.464472	-2.098433	-178.463700	-2.512920	-35.401270	 1.231570	 13.597130	 89.874890	-12.594100	-2.376256	 30.408580	-0.042861	 1.620426	-29.790360	 179.467300	 20.602080	-72.400320	 24.050590	 178.519000	 89.153500	-171.168400	 2.378625	 29.665270	 0.027858	-0.878976	 3.147847	 1.278241	-0.671557	-3.956557	 1.077338	 0.475072	-7.110381	 0.060682	-91.795880	 78.112520	 178.897300	 35.666530	 63.497620	-47.558370	-8.989208	-4.220895	-29.453390	 4.901119	 11.111560	-5.464521	-3.812334	 37.924440	-2.927599	-2.450526	 36.184240	 0.754587	-1.378229	 35.397820	-2.634230	-0.319555	 4.048024	-1.894189	 0.578917	-12.467610	-1.397595	 89.792800	 78.714220	 179.521400	-41.809670	 71.366710	 43.795640	 1.681548	-7.570337	 25.771430	-15.310250	 9.890544	 9.717372	 6.437017	 35.671460	-0.771858	 2.830251	 35.756010	-7.813440	-2.350882	 35.473990	 5.254307
 6.867216	 4.281166	-0.843457	-170.215700	-1.951588	-0.228180	 6.192587	-0.368297	-177.968700	-2.799843	-34.022110	 1.034505	 110.452100	 89.980220	-109.724200	-2.376543	 30.354950	-0.041665	 1.824351	-31.215390	 179.606400	 17.152160	-69.474110	 20.470630	-178.470800	 88.781800	-174.040600	 2.377863	 29.814210	 0.031146	-0.947909	 3.129169	 1.640686	-0.807374	-4.004986	 1.051343	 0.395778	-7.163250	 0.050735	-91.785510	 78.340640	 178.845300	 35.410700	 62.912210	-48.088330	-8.816599	-4.355486	-30.313870	 4.942621	 10.567730	-5.455748	-3.812334	 37.924440	-2.927599	-2.450526	 36.184240	 0.754587	-1.378229	 35.397820	-2.634230	-0.336318	 4.097252	-2.124290	 0.630157	-12.620610	-1.275041	 89.788410	 78.488200	 179.489100	-41.725820	 71.421710	 43.346690	 1.786063	-7.634669	 26.318720	-15.063470	 9.349488	 9.704654	 6.437017	 35.671460	-0.771858	 2.830251	 35.756010	-7.813440	-2.350882	 35.473990	 5.254307
 6.861349	 4.305961	-0.844747	-170.103400	-1.763790	-0.525308	 6.016737	 1.753382	-177.482900	-3.044847	-31.982770	 0.945972	 19.451500	 89.846770	-18.844020	-2.375971	 30.462150	-0.044045	 1.971070	-32.523140	 179.732400	 14.150210	-65.825540	 17.209920	-175.484400	 88.895540	-176.874800	 2.377721	 29.844010	 0.031802	-1.016105	 3.079735	 1.986010	-0.948602	-4.050223	 1.021231	 0.299293	-7.210251	 0.038488	-91.774550	 78.557850	 178.795800	 35.110720	 62.319260	-48.623990	-8.683923	-4.475883	-31.139540	 4.948512	 9.897872	-5.445249	-3.812334	 37.924440	-2.927599	-2.450526	 36.184240	 0.754587	-1.378229	 35.397820	-2.634230	-0.357832	 4.167358	-2.355013	 0.666810	-12.783560	-1.194172	 89.783700	 78.272660	 179.465300	-41.664100	 71.490940	 42.955370	 1.887121	-7.682360	 26.775390	-14.813540	 8.683816	 9.688953	 6.437017	 35.671460	-0.771858	 2.830251	 35.756010	-7.813440	-2.350882	 35.473990	 5.254307
 6.856056	 4.329287	-0.845751	-170.014400	-1.574464	-0.705508	 5.972960	 3.916373	-177.161300	-3.267231	-29.621820	 0.932174	 12.366600	 89.652260	-11.772980	-2.373872	 30.844430	-0.052571	 2.076910	-33.520910	 179.770300	 12.018960	-62.130630	 14.770260	-171.033700	 89.105830	 178.838900	 2.378981	 29.595700	 0.026319	-1.066267	 3.010031	 2.206246	-1.056395	-4.081892	 0.996975	 0.208910	-7.241570	 0.026921	-91.766650	 78.701730	 178.766900	 34.891180	 61.791600	-49.124960	-8.651948	-4.505970	-31.793080	 4.814866	 9.210895	-5.435200	-3.812334	 37.924440	-2.927599	-2.450526	 36.184240	 0.754587	-1.378229	 35.397820	-2.634230	-0.368661	 4.238341	-2.536032	 0.679669	-12.917820	-1.158957	 89.780400	 78.131190	 179.451900	-41.620980	 71.567810	 42.673260	 1.965958	-7.706548	 27.048630	-14.608610	 8.001490	 9.673215	 6.437017	 35.671460	-0.771858	 2.830251	 35.756010	-7.813440	-2.350882	 35.473990	 5.254307
 6.851488	 4.350585	-0.846551	-169.946800	-1.379215	-0.813101	 6.082759	 6.017511	-177.015000	-3.428626	-27.128400	 1.000170	 9.378158	 89.317860	-8.642016	-2.370782	 31.382230	-0.064659	 2.193006	-34.266550	 179.750700	 10.529930	-58.635860	 12.987710	-164.418900	 89.296400	 172.403200	 2.382600	 28.842340	 0.009844	-1.093787	 2.922402	 2.339149	-1.130206	-4.119768	 0.983026	 0.136249	-7.261810	 0.017583	-91.762160	 78.781400	 178.757000	 34.725910	 61.355960	-49.547070	-8.650975	-4.500441	-32.276900	 4.650440	 8.517291	-5.421083	-3.812334	 37.924440	-2.927599	-2.450526	 36.184240	 0.754587	-1.378229	 35.397820	-2.634230	-0.359998	 4.299627	-2.679195	 0.683340	-13.019300	-1.145877	 89.778530	 78.051310	 179.447100	-41.580370	 71.651210	 42.471450	 2.023204	-7.712627	 27.158030	-14.452470	 7.336133	 9.658439	 6.437017	 35.671460	-0.771858	 2.830251	 35.756010	-7.813440	-2.350882	 35.473990	 5.254307
 6.846730	 4.374250	-0.847380	-169.879100	-1.148157	-0.896908	 6.416382	 8.483335	-177.015700	-3.514801	-24.039740	 1.176264	 7.085322	 88.585290	-5.911064	-2.366177	 32.139460	-0.081864	 2.332188	-34.906290	 179.699500	 9.191989	-54.742010	 11.323350	-151.194500	 89.454990	 159.360800	 2.386604	 27.936500	-0.009751	-1.102235	 2.794171	 2.445838	-1.184642	-4.177041	 0.979617	 0.074802	-7.276854	 0.009664	-91.758700	 78.842540	 178.754700	 34.563780	 60.949750	-49.956680	-8.632462	-4.503896	-32.679240	 4.509981	 7.734786	-5.411242	-3.812334	 37.924440	-2.927599	-2.450526	 36.184240	 0.754587	-1.378229	 35.397820	-2.634230	-0.325080	 4.356025	-2.826216	 0.693704	-13.103170	-1.136186	 89.777150	 77.990620	 179.450500	-41.521640	 71.760960	 42.293700	 2.068444	-7.702650	 27.116570	-14.318940	 6.557121	 9.641963	 6.437017	 35.671460	-0.771858	 2.830251	 35.756010	-7.813440	-2.350882	 35.473990	 5.254307
 6.841496	 4.400447	-0.848186	-169.796300	-0.901837	-1.001859	 6.922525	 11.591140	-176.956800	-3.685853	-19.615370	 1.355981	 5.090919	 87.183250	-3.221690	-2.359497	 33.158340	-0.105344	 2.603482	-35.240670	 179.699000	 7.775721	-50.590060	 9.686432	-144.566500	 89.569310	 152.770500	 2.388794	 27.402050	-0.021202	-1.098645	 2.625001	 2.559449	-1.221957	-4.239725	 0.989295	 0.028941	-7.284278	 0.003741	-91.755620	 78.895780	 178.749400	 34.403050	 60.623940	-50.338240	-8.641491	-4.507123	-32.958100	 4.381262	 6.835580	-5.400986	-3.812334	 37.924440	-2.927599	-2.450526	 36.184240	 0.754587	-1.378229	 35.397820	-2.634230	-0.269603	 4.395989	-2.969445	 0.720462	-13.154210	-1.115163	 89.776030	 77.938260	 179.456500	-41.447830	 71.898790	 42.155480	 2.085151	-7.671950	 26.869400	-14.226160	 5.661772	 9.624297	 6.437017	 35.671460	-0.771858	 2.830251	 35.756010	-7.813440	-2.350882	 35.473990	 5.254307
 6.835465	 4.426676	-0.849687	-169.694600	-0.721969	-1.119704	 8.270514	 16.975490	-176.711400	-4.140344	-11.371420	 1.532410	 3.275840	 83.939000	 0.456993	-2.350963	 34.345990	-0.133246	 2.835250	-35.601860	 179.726200	 6.523763	-46.903000	 8.276586	-146.260300	 89.585980	 154.338200	 2.386955	 27.854130	-0.011522	-1.098622	 2.487607	 2.668978	-1.249410	-4.284464	 1.010823	-0.000462	-7.282406	-0.000058	-91.753470	 78.931480	 178.741700	 34.311440	 60.419660	-50.678260	-8.666151	-4.506039	-33.067100	 4.276205	 5.948759	-5.391749	-3.812334	 37.924440	-2.927599	-2.450526	 36.184240	 0.754587	-1.378229	 35.397820	-2.634230	-0.211333	 4.405833	-3.085413	 0.756707	-13.157590	-1.075067	 89.775250	 77.903020	 179.455000	-41.373570	 72.044340	 42.077570	 2.060572	-7.623126	 26.436960	-14.194380	 4.779012	 9.608388	 6.437017	 35.671460	-0.771858	 2.830251	 35.756010	-7.813440	-2.350882	 35.473990	 5.254307
 6.831698	 4.448917	-0.850816	-169.560300	-0.763511	-1.222709	 8.253205	 18.043420	-176.743700	-4.073234	-11.620720	 1.564126	 3.475136	 84.046590	 0.346339	-2.339839	 35.744730	-0.166921	 3.057447	-35.853010	 179.771100	 5.362924	-43.850200	 7.083108	-154.235900	 89.505440	 162.034200	 2.382768	 28.806700	 0.009065	-1.117002	 2.415351	 2.735251	-1.280337	-4.315181	 1.029889	-0.021436	-7.273818	-0.002768	-91.752450	 78.944700	 178.731800	 34.322890	 60.303300	-51.019630	-8.676167	-4.503108	-33.030480	 4.194306	 5.074427	-5.383787	-3.812334	 37.924440	-2.927599	-2.450526	 36.184240	 0.754587	-1.378229	 35.397820	-2.634230	-0.160191	 4.382340	-3.174130	 0.798111	-13.114900	-1.014365	 89.774710	 77.890010	 179.439500	-41.301400	 72.196030	 42.048920	 2.001735	-7.558766	 25.861330	-14.212520	 3.908472	 9.594280	 6.437017	 35.671460	-0.771858	 2.830251	 35.756010	-7.813440	-2.350882	 35.473990	 5.254307
 6.827509	 4.475346	-0.851884	-169.344900	-0.809498	-1.284393	 8.270493	 19.362030	-177.005700	-3.945463	-11.617640	 1.587357	 3.713217	 84.146290	 0.210247	-2.324274	 37.485240	-0.210161	 3.245290	-35.824150	 179.781000	 4.194533	-40.987000	 5.954342	-164.992000	 89.340610	 172.361400	 2.376856	 30.009380	 0.035460	-1.180792	 2.440160	 2.719919	-1.338337	-4.335382	 1.036881	-0.046423	-7.256950	-0.005988	-91.753290	 78.926990	 178.717500	 34.530030	 60.250870	-51.597080	-8.669846	-4.499881	-32.817760	 4.127335	 4.036777	-5.375625	-3.812334	 37.924440	-2.927599	-2.450526	 36.184240	 0.754587	-1.378229	 35.397820	-2.634230	-0.122398	 4.326221	-3.233675	 0.846259	-13.024010	-0.908696	 89.774480	 77.904550	 179.397200	-41.161480	 72.391340	 41.977600	 1.940463	-7.475776	 25.139930	-14.252190	 2.876031	 9.579763	 6.437017	 35.671460	-0.771858	 2.830251	 35.756010	-7.813440	-2.350882	 35.473990	 5.254307
 6.823642	 4.500430	-0.852738	-169.105300	-0.854699	-1.293002	 8.305382	 20.623200	-177.374000	-3.710148	-11.612700	 1.623688	 4.016459	 84.076730	 0.083662	-2.309822	 38.926540	-0.247223	 3.236958	-35.588840	 179.719000	 3.458641	-39.034690	 5.191207	-170.675300	 89.178130	 177.664700	 2.371994	 30.906370	 0.055440	-1.272383	 2.517693	 2.621518	-1.408898	-4.336138	 1.030308	-0.075250	-7.233783	-0.009690	-91.755990	 78.875690	 178.701400	 34.787360	 60.306760	-52.039760	-8.647418	-4.497489	-32.461000	 4.093989	 3.059472	-5.369245	-3.812334	 37.924440	-2.927599	-2.450526	 36.184240	 0.754587	-1.378229	 35.397820	-2.634230	-0.110567	 4.264711	-3.248471	 0.884353	-12.916910	-0.787401	 89.775250	 77.953320	 179.348300	-40.917220	 72.595380	 41.774780	 1.900186	-7.392322	 24.451160	-14.296290	 1.904593	 9.568467	 6.437017	 35.671460	-0.771858	 2.830251	 35.756010	-7.813440	-2.350882	 35.473990	 5.254307
 6.819753	 4.526539	-0.853632	-168.858000	-0.901468	-1.279349	 8.359939	 21.934180	-177.825300	-3.344629	-11.604600	 1.681098	 4.424692	 83.732710	-0.028298	-2.294512	 40.309770	-0.283959	 3.172270	-35.328220	 179.636000	 3.019371	-37.779470	 4.710820	-173.855200	 89.068120	-179.434200	 2.368707	 31.471690	 0.068174	-1.368123	 2.577752	 2.487690	-1.479715	-4.315143	 1.010563	-0.108888	-7.198064	-0.013990	-91.759310	 78.814880	 178.682900	 35.095050	 60.461950	-52.377580	-8.597499	-4.501617	-31.942000	 4.101465	 2.076294	-5.368743	-3.812334	 37.924440	-2.927599	-2.450526	 36.184240	 0.754587	-1.378229	 35.397820	-2.634230	-0.112328	 4.208148	-3.232925	 0.912710	-12.791450	-0.646681	 89.776520	 78.012970	 179.307700	-40.534160	 72.825910	 41.398150	 1.878510	-7.300571	 23.740100	-14.343340	 0.903231	 9.559294	 6.437017	 35.671460	-0.771858	 2.830251	 35.756010	-7.813440	-2.350882	 35.473990	 5.254307
